<svg xmlns="http://www.w3.org/2000/svg" viewBox="0 0 1200 300" width="1200" height="300" role="img" aria-label="find-apartment: поиск квартир в аренду в Минске с уведомлениями в Telegram">
<defs>
<linearGradient id="sky" x1="0" y1="0" x2="0" y2="1">
<stop offset="0%" stop-color="#141c33"/>
<stop offset="60%" stop-color="#1e2a4d"/>
<stop offset="100%" stop-color="#2b3a63"/>
</linearGradient>
<linearGradient id="glow" x1="0" y1="0" x2="0" y2="1">
<stop offset="0%" stop-color="#ffd479" stop-opacity="0.10"/>
<stop offset="100%" stop-color="#ffd479" stop-opacity="0.02"/>
</linearGradient>
<clipPath id="lens"><circle cx="930" cy="168" r="69"/></clipPath>
<clipPath id="frame"><rect width="1200" height="300" rx="16"/></clipPath>
</defs>
<g clip-path="url(#frame)">
<rect width="1200" height="300" fill="url(#sky)"/>
<circle cx="761" cy="35" r="1.3" fill="#fff" opacity="0.18"/>
<circle cx="892" cy="61" r="0.7" fill="#fff" opacity="0.33"/>
<circle cx="583" cy="70" r="0.7" fill="#fff" opacity="0.18"/>
<circle cx="823" cy="119" r="0.7" fill="#fff" opacity="0.23"/>
<circle cx="949" cy="134" r="1.2" fill="#fff" opacity="0.29"/>
<circle cx="1165" cy="22" r="1.5" fill="#fff" opacity="0.25"/>
<circle cx="649" cy="31" r="0.9" fill="#fff" opacity="0.44"/>
<circle cx="672" cy="88" r="1.2" fill="#fff" opacity="0.28"/>
<circle cx="900" cy="24" r="0.7" fill="#fff" opacity="0.22"/>
<circle cx="982" cy="69" r="0.9" fill="#fff" opacity="0.35"/>
<circle cx="841" cy="53" r="1.4" fill="#fff" opacity="0.39"/>
<circle cx="711" cy="87" r="1.1" fill="#fff" opacity="0.46"/>
<circle cx="1012" cy="52" r="1.6" fill="#fff" opacity="0.19"/>
<circle cx="819" cy="110" r="0.8" fill="#fff" opacity="0.32"/>
<circle cx="584" cy="99" r="1.4" fill="#fff" opacity="0.35"/>
<circle cx="1103" cy="55" r="1.3" fill="#fff" opacity="0.36"/>
<circle cx="920" cy="73" r="1.4" fill="#fff" opacity="0.48"/>
<circle cx="854" cy="98" r="0.7" fill="#fff" opacity="0.40"/>
<circle cx="961" cy="139" r="1.4" fill="#fff" opacity="0.25"/>
<circle cx="799" cy="99" r="0.6" fill="#fff" opacity="0.31"/>
<circle cx="664" cy="31" r="0.7" fill="#fff" opacity="0.42"/>
<circle cx="640" cy="47" r="1.0" fill="#fff" opacity="0.45"/>
<circle cx="610" cy="72" r="1.1" fill="#fff" opacity="0.46"/>
<circle cx="1068" cy="123" r="0.9" fill="#fff" opacity="0.30"/>
<circle cx="782" cy="126" r="1.6" fill="#fff" opacity="0.20"/>
<circle cx="669" cy="45" r="0.8" fill="#fff" opacity="0.32"/>
<circle cx="925" cy="49" r="0.6" fill="#fff" opacity="0.30"/>
<circle cx="789" cy="86" r="1.6" fill="#fff" opacity="0.39"/>
<circle cx="880" cy="93" r="1.3" fill="#fff" opacity="0.17"/>
<circle cx="1118" cy="113" r="1.5" fill="#fff" opacity="0.43"/>
<circle cx="803" cy="65" r="0.7" fill="#fff" opacity="0.37"/>
<circle cx="599" cy="24" r="0.8" fill="#fff" opacity="0.21"/>
<circle cx="771" cy="23" r="0.6" fill="#fff" opacity="0.20"/>
<circle cx="623" cy="61" r="0.6" fill="#fff" opacity="0.46"/>
<circle cx="941" cy="34" r="0.9" fill="#fff" opacity="0.27"/>
<circle cx="786" cy="31" r="1.4" fill="#fff" opacity="0.50"/>
<circle cx="849" cy="76" r="0.7" fill="#fff" opacity="0.19"/>
<circle cx="772" cy="49" r="1.4" fill="#fff" opacity="0.21"/>
<circle cx="574" cy="134" r="1.1" fill="#fff" opacity="0.20"/>
<circle cx="897" cy="19" r="1.1" fill="#fff" opacity="0.49"/>
<circle cx="1095" cy="102" r="0.9" fill="#fff" opacity="0.28"/>
<circle cx="664" cy="112" r="1.1" fill="#fff" opacity="0.42"/>
<circle cx="764" cy="44" r="1.4" fill="#fff" opacity="0.49"/>
<circle cx="1089" cy="116" r="1.4" fill="#fff" opacity="0.41"/>
<circle cx="701" cy="80" r="1.0" fill="#fff" opacity="0.16"/>
<circle cx="577" cy="51" r="0.9" fill="#fff" opacity="0.39"/>
<circle cx="1153" cy="71" r="1.5" fill="#fff" opacity="0.50"/>
<circle cx="1152" cy="61" r="0.8" fill="#fff" opacity="0.23"/>
<circle cx="682" cy="41" r="1.2" fill="#fff" opacity="0.47"/>
<circle cx="1081" cy="75" r="1.3" fill="#fff" opacity="0.43"/>
<circle cx="613" cy="98" r="1.5" fill="#fff" opacity="0.42"/>
<circle cx="1025" cy="75" r="0.8" fill="#fff" opacity="0.43"/>
<circle cx="766" cy="115" r="1.6" fill="#fff" opacity="0.29"/>
<circle cx="809" cy="133" r="1.3" fill="#fff" opacity="0.21"/>
<circle cx="639" cy="35" r="1.5" fill="#fff" opacity="0.43"/>
<circle cx="651" cy="118" r="1.6" fill="#fff" opacity="0.38"/>
<circle cx="777" cy="84" r="0.7" fill="#fff" opacity="0.15"/>
<circle cx="1162" cy="97" r="1.1" fill="#fff" opacity="0.48"/>
<circle cx="829" cy="124" r="1.4" fill="#fff" opacity="0.22"/>
<circle cx="716" cy="52" r="0.8" fill="#fff" opacity="0.36"/>
<circle cx="721" cy="68" r="0.7" fill="#fff" opacity="0.47"/>
<circle cx="779" cy="73" r="1.2" fill="#fff" opacity="0.47"/>
<circle cx="821" cy="130" r="1.1" fill="#fff" opacity="0.34"/>
<circle cx="885" cy="18" r="1.0" fill="#fff" opacity="0.21"/>
<circle cx="562" cy="115" r="0.8" fill="#fff" opacity="0.32"/>
<circle cx="1010" cy="85" r="0.9" fill="#fff" opacity="0.33"/>
<circle cx="904" cy="113" r="0.7" fill="#fff" opacity="0.35"/>
<circle cx="714" cy="50" r="1.4" fill="#fff" opacity="0.33"/>
<circle cx="908" cy="110" r="1.5" fill="#fff" opacity="0.31"/>
<circle cx="940" cy="79" r="1.1" fill="#fff" opacity="0.39"/>
<rect x="600" y="200" width="64" height="100" rx="3" fill="#0f1730" opacity="0.92"/>
<rect x="618" y="218" width="9" height="12" rx="1.5" fill="#ffd479" opacity="0.22"/>
<rect x="618" y="242" width="9" height="12" rx="1.5" fill="#ffd479" opacity="0.22"/>
<rect x="618" y="266" width="9" height="12" rx="1.5" fill="#ffd479" opacity="0.22"/>
<rect x="638" y="218" width="9" height="12" rx="1.5" fill="#ffd479" opacity="0.22"/>
<rect x="638" y="242" width="9" height="12" rx="1.5" fill="#ffd479" opacity="0.22"/>
<rect x="638" y="266" width="9" height="12" rx="1.5" fill="#ffd479" opacity="0.22"/>
<rect x="672" y="162" width="52" height="138" rx="3" fill="#0f1730" opacity="0.92"/>
<rect x="684" y="180" width="9" height="12" rx="1.5" fill="#ffd479" opacity="0.22"/>
<rect x="684" y="228" width="9" height="12" rx="1.5" fill="#ffd479" opacity="0.22"/>
<rect x="684" y="252" width="9" height="12" rx="1.5" fill="#ffd479" opacity="0.22"/>
<rect x="684" y="276" width="9" height="12" rx="1.5" fill="#ffd479" opacity="0.22"/>
<rect x="732" y="118" width="76" height="182" rx="3" fill="#0f1730" opacity="0.92"/>
<rect x="746" y="160" width="9" height="12" rx="1.5" fill="#ffd479" opacity="0.22"/>
<rect x="746" y="184" width="9" height="12" rx="1.5" fill="#ffd479" opacity="0.22"/>
<rect x="746" y="208" width="9" height="12" rx="1.5" fill="#ffd479" opacity="0.22"/>
<rect x="746" y="256" width="9" height="12" rx="1.5" fill="#ffd479" opacity="0.22"/>
<rect x="766" y="136" width="9" height="12" rx="1.5" fill="#ffd479" opacity="0.22"/>
<rect x="766" y="184" width="9" height="12" rx="1.5" fill="#ffd479" opacity="0.22"/>
<rect x="766" y="208" width="9" height="12" rx="1.5" fill="#ffd479" opacity="0.22"/>
<rect x="766" y="256" width="9" height="12" rx="1.5" fill="#ffd479" opacity="0.22"/>
<rect x="786" y="160" width="9" height="12" rx="1.5" fill="#ffd479" opacity="0.22"/>
<rect x="786" y="184" width="9" height="12" rx="1.5" fill="#ffd479" opacity="0.22"/>
<rect x="786" y="208" width="9" height="12" rx="1.5" fill="#ffd479" opacity="0.22"/>
<rect x="816" y="182" width="58" height="118" rx="3" fill="#0f1730" opacity="0.92"/>
<rect x="830" y="200" width="9" height="12" rx="1.5" fill="#ffd479" opacity="0.22"/>
<rect x="850" y="200" width="9" height="12" rx="1.5" fill="#ffd479" opacity="0.22"/>
<rect x="850" y="248" width="9" height="12" rx="1.5" fill="#ffd479" opacity="0.22"/>
<rect x="882" y="92" width="88" height="208" rx="3" fill="#0f1730" opacity="0.92"/>
<rect x="902" y="158" width="9" height="12" rx="1.5" fill="#ffd479" opacity="0.22"/>
<rect x="902" y="182" width="9" height="12" rx="1.5" fill="#ffd479" opacity="0.22"/>
<rect x="902" y="230" width="9" height="12" rx="1.5" fill="#ffd479" opacity="0.22"/>
<rect x="902" y="254" width="9" height="12" rx="1.5" fill="#ffd479" opacity="0.22"/>
<rect x="902" y="278" width="9" height="12" rx="1.5" fill="#ffd479" opacity="0.22"/>
<rect x="922" y="182" width="9" height="12" rx="1.5" fill="#ffd479" opacity="0.22"/>
<rect x="922" y="278" width="9" height="12" rx="1.5" fill="#ffd479" opacity="0.22"/>
<rect x="942" y="110" width="9" height="12" rx="1.5" fill="#ffd479" opacity="0.22"/>
<rect x="942" y="182" width="9" height="12" rx="1.5" fill="#ffd479" opacity="0.22"/>
<rect x="942" y="206" width="9" height="12" rx="1.5" fill="#ffd479" opacity="0.22"/>
<rect x="942" y="230" width="9" height="12" rx="1.5" fill="#ffd479" opacity="0.22"/>
<rect x="978" y="136" width="64" height="164" rx="3" fill="#0f1730" opacity="0.92"/>
<rect x="996" y="154" width="9" height="12" rx="1.5" fill="#ffd479" opacity="0.22"/>
<rect x="996" y="226" width="9" height="12" rx="1.5" fill="#ffd479" opacity="0.22"/>
<rect x="996" y="250" width="9" height="12" rx="1.5" fill="#ffd479" opacity="0.22"/>
<rect x="996" y="274" width="9" height="12" rx="1.5" fill="#ffd479" opacity="0.22"/>
<rect x="1016" y="178" width="9" height="12" rx="1.5" fill="#ffd479" opacity="0.22"/>
<rect x="1016" y="226" width="9" height="12" rx="1.5" fill="#ffd479" opacity="0.22"/>
<rect x="1016" y="250" width="9" height="12" rx="1.5" fill="#ffd479" opacity="0.22"/>
<rect x="1050" y="190" width="48" height="110" rx="3" fill="#0f1730" opacity="0.92"/>
<rect x="1070" y="208" width="9" height="12" rx="1.5" fill="#ffd479" opacity="0.22"/>
<rect x="1070" y="232" width="9" height="12" rx="1.5" fill="#ffd479" opacity="0.22"/>
<rect x="1106" y="156" width="58" height="144" rx="3" fill="#0f1730" opacity="0.92"/>
<rect x="1120" y="198" width="9" height="12" rx="1.5" fill="#ffd479" opacity="0.22"/>
<rect x="1140" y="270" width="9" height="12" rx="1.5" fill="#ffd479" opacity="0.22"/>
<g clip-path="url(#lens)">
<rect width="1200" height="300" fill="url(#glow)"/>
<rect x="618" y="242" width="9" height="12" rx="1.5" fill="#ffd479" opacity="0.95"/>
<rect x="684" y="204" width="9" height="12" rx="1.5" fill="#ffd479" opacity="0.95"/>
<rect x="684" y="228" width="9" height="12" rx="1.5" fill="#ffd479" opacity="0.95"/>
<rect x="684" y="276" width="9" height="12" rx="1.5" fill="#ffd479" opacity="0.95"/>
<rect x="704" y="180" width="9" height="12" rx="1.5" fill="#ffd479" opacity="0.95"/>
<rect x="704" y="228" width="9" height="12" rx="1.5" fill="#ffd479" opacity="0.95"/>
<rect x="704" y="276" width="9" height="12" rx="1.5" fill="#ffd479" opacity="0.95"/>
<rect x="746" y="136" width="9" height="12" rx="1.5" fill="#ffd479" opacity="0.95"/>
<rect x="746" y="184" width="9" height="12" rx="1.5" fill="#ffd479" opacity="0.95"/>
<rect x="746" y="208" width="9" height="12" rx="1.5" fill="#ffd479" opacity="0.95"/>
<rect x="746" y="232" width="9" height="12" rx="1.5" fill="#ffd479" opacity="0.95"/>
<rect x="766" y="136" width="9" height="12" rx="1.5" fill="#ffd479" opacity="0.95"/>
<rect x="766" y="160" width="9" height="12" rx="1.5" fill="#ffd479" opacity="0.95"/>
<rect x="766" y="184" width="9" height="12" rx="1.5" fill="#ffd479" opacity="0.95"/>
<rect x="786" y="184" width="9" height="12" rx="1.5" fill="#ffd479" opacity="0.95"/>
<rect x="830" y="200" width="9" height="12" rx="1.5" fill="#ffd479" opacity="0.95"/>
<rect x="830" y="224" width="9" height="12" rx="1.5" fill="#ffd479" opacity="0.95"/>
<rect x="830" y="248" width="9" height="12" rx="1.5" fill="#ffd479" opacity="0.95"/>
<rect x="850" y="248" width="9" height="12" rx="1.5" fill="#ffd479" opacity="0.95"/>
<rect x="902" y="158" width="9" height="12" rx="1.5" fill="#ffd479" opacity="0.95"/>
<rect x="902" y="182" width="9" height="12" rx="1.5" fill="#ffd479" opacity="0.95"/>
<rect x="902" y="206" width="9" height="12" rx="1.5" fill="#ffd479" opacity="0.95"/>
<rect x="902" y="254" width="9" height="12" rx="1.5" fill="#ffd479" opacity="0.95"/>
<rect x="922" y="182" width="9" height="12" rx="1.5" fill="#ffd479" opacity="0.95"/>
<rect x="922" y="206" width="9" height="12" rx="1.5" fill="#ffd479" opacity="0.95"/>
<rect x="922" y="254" width="9" height="12" rx="1.5" fill="#ffd479" opacity="0.95"/>
<rect x="942" y="278" width="9" height="12" rx="1.5" fill="#ffd479" opacity="0.95"/>
<rect x="996" y="154" width="9" height="12" rx="1.5" fill="#ffd479" opacity="0.95"/>
<rect x="996" y="178" width="9" height="12" rx="1.5" fill="#ffd479" opacity="0.95"/>
<rect x="996" y="202" width="9" height="12" rx="1.5" fill="#ffd479" opacity="0.95"/>
<rect x="996" y="226" width="9" height="12" rx="1.5" fill="#ffd479" opacity="0.95"/>
<rect x="996" y="250" width="9" height="12" rx="1.5" fill="#ffd479" opacity="0.95"/>
<rect x="1016" y="178" width="9" height="12" rx="1.5" fill="#ffd479" opacity="0.95"/>
<rect x="1016" y="226" width="9" height="12" rx="1.5" fill="#ffd479" opacity="0.95"/>
<rect x="1016" y="250" width="9" height="12" rx="1.5" fill="#ffd479" opacity="0.95"/>
<rect x="1070" y="208" width="9" height="12" rx="1.5" fill="#ffd479" opacity="0.95"/>
<rect x="1070" y="232" width="9" height="12" rx="1.5" fill="#ffd479" opacity="0.95"/>
<rect x="1070" y="256" width="9" height="12" rx="1.5" fill="#ffd479" opacity="0.95"/>
<rect x="1120" y="174" width="9" height="12" rx="1.5" fill="#ffd479" opacity="0.95"/>
<rect x="1120" y="198" width="9" height="12" rx="1.5" fill="#ffd479" opacity="0.95"/>
<rect x="1120" y="246" width="9" height="12" rx="1.5" fill="#ffd479" opacity="0.95"/>
<rect x="1120" y="270" width="9" height="12" rx="1.5" fill="#ffd479" opacity="0.95"/>
<rect x="1140" y="174" width="9" height="12" rx="1.5" fill="#ffd479" opacity="0.95"/>
<rect x="1140" y="198" width="9" height="12" rx="1.5" fill="#ffd479" opacity="0.95"/>
<rect x="1140" y="222" width="9" height="12" rx="1.5" fill="#ffd479" opacity="0.95"/>
<rect x="1140" y="246" width="9" height="12" rx="1.5" fill="#ffd479" opacity="0.95"/>
<rect x="1140" y="270" width="9" height="12" rx="1.5" fill="#ffd479" opacity="0.95"/>
</g>
<line x1="983" y1="221" x2="1050" y2="288" stroke="#8fa6e8" stroke-width="18" stroke-linecap="round"/>
<circle cx="930" cy="168" r="74" fill="none" stroke="#8fa6e8" stroke-width="9"/>
<circle cx="930" cy="168" r="65" fill="none" stroke="#ffffff" stroke-width="1.5" opacity="0.25"/>
<path d="M76.0849609375 153.37890625V178.0H68.8017578125V153.37890625H66.2236328125V146.611328125H68.8017578125V134.494140625Q68.8017578125 128.564453125 70.8642578125 126.115234375Q73.7001953125 122.69921875 79.1142578125 122.69921875Q81.0478515625 122.69921875 83.98046875 123.8271484375V131.2392578125L83.2392578125 130.8525390625Q80.88671875 129.66015625 79.3720703125 129.66015625Q77.4384765625 129.66015625 76.76171875 131.0458984375Q76.0849609375 132.3994140625 76.0849609375 136.2666015625V146.611328125H83.98046875V153.37890625ZM98.306640625 146.611328125V178.0H91.0556640625V146.611328125ZM89.9599609375 133.5595703125Q89.9599609375 131.658203125 91.345703125 130.2724609375Q92.7314453125 128.88671875 94.6650390625 128.88671875Q96.630859375 128.88671875 98.0166015625 130.2724609375Q99.40234375 131.6259765625 99.40234375 133.591796875Q99.40234375 135.5576171875 98.0166015625 136.943359375Q96.6630859375 138.3291015625 94.697265625 138.3291015625Q92.7314453125 138.3291015625 91.345703125 136.943359375Q89.9599609375 135.5576171875 89.9599609375 133.5595703125ZM108.9912109375 146.611328125H116.2744140625V149.51171875Q120.0771484375 145.7412109375 124.8466796875 145.7412109375Q130.3251953125 145.7412109375 133.38671875 149.189453125Q136.029296875 152.1220703125 136.029296875 158.7607421875V178.0H128.74609375V160.46875Q128.74609375 155.828125 127.45703125 154.0556640625Q126.2001953125 152.2509765625 122.880859375 152.2509765625Q119.271484375 152.2509765625 117.7568359375 154.6357421875Q116.2744140625 156.98828125 116.2744140625 162.853515625V178.0H108.9912109375ZM169.8203125 123.5693359375H177.103515625V178.0H169.8203125V174.712890625Q165.5341796875 178.90234375 160.1201171875 178.90234375Q153.6748046875 178.90234375 149.4208984375 174.197265625Q145.19921875 169.3955078125 145.19921875 162.208984375Q145.19921875 155.18359375 149.4208984375 150.478515625Q153.6103515625 145.7412109375 159.958984375 145.7412109375Q165.4697265625 145.7412109375 169.8203125 150.2529296875ZM152.611328125 162.208984375Q152.611328125 166.720703125 155.0283203125 169.556640625Q157.509765625 172.4248046875 161.2802734375 172.4248046875Q165.30859375 172.4248046875 167.7900390625 169.6533203125Q170.271484375 166.78515625 170.271484375 162.3701171875Q170.271484375 157.955078125 167.7900390625 155.0869140625Q165.30859375 152.283203125 161.3447265625 152.283203125Q157.6064453125 152.283203125 155.0927734375 155.119140625Q152.611328125 157.9873046875 152.611328125 162.208984375ZM183.1796875 158.8896484375H197.552734375V165.2060546875H183.1796875ZM226.767578125 146.611328125H234.05078125V178.0H226.767578125V174.712890625Q222.2880859375 178.90234375 217.1318359375 178.90234375Q210.6220703125 178.90234375 206.3681640625 174.197265625Q202.146484375 169.3955078125 202.146484375 162.208984375Q202.146484375 155.1513671875 206.3681640625 150.4462890625Q210.58984375 145.7412109375 216.9384765625 145.7412109375Q222.4169921875 145.7412109375 226.767578125 150.2529296875ZM209.55859375 162.208984375Q209.55859375 166.720703125 211.9755859375 169.556640625Q214.45703125 172.4248046875 218.2275390625 172.4248046875Q222.255859375 172.4248046875 224.7373046875 169.6533203125Q227.21875 166.78515625 227.21875 162.3701171875Q227.21875 157.955078125 224.7373046875 155.0869140625Q222.255859375 152.283203125 218.2919921875 152.283203125Q214.5537109375 152.283203125 212.0400390625 155.119140625Q209.55859375 157.9873046875 209.55859375 162.208984375ZM251.9541015625 195.080078125H244.703125V146.611328125H251.9541015625V150.02734375Q256.240234375 145.7412109375 261.6865234375 145.7412109375Q268.1640625 145.7412109375 272.353515625 150.5107421875Q276.607421875 155.248046875 276.607421875 162.466796875Q276.607421875 169.5244140625 272.3857421875 174.2294921875Q268.1962890625 178.90234375 261.8154296875 178.90234375Q256.3046875 178.90234375 251.9541015625 174.4873046875ZM269.1953125 162.4990234375Q269.1953125 157.9873046875 266.74609375 155.1513671875Q264.2646484375 152.283203125 260.494140625 152.283203125Q256.498046875 152.283203125 254.0166015625 155.0546875Q251.53515625 157.826171875 251.53515625 162.337890625Q251.53515625 166.7529296875 254.0166015625 169.62109375Q256.4658203125 172.4248046875 260.4619140625 172.4248046875Q264.232421875 172.4248046875 266.681640625 169.5888671875Q269.1953125 166.7529296875 269.1953125 162.4990234375ZM308.916015625 146.611328125H316.19921875V178.0H308.916015625V174.712890625Q304.4365234375 178.90234375 299.2802734375 178.90234375Q292.7705078125 178.90234375 288.5166015625 174.197265625Q284.294921875 169.3955078125 284.294921875 162.208984375Q284.294921875 155.1513671875 288.5166015625 150.4462890625Q292.73828125 145.7412109375 299.0869140625 145.7412109375Q304.5654296875 145.7412109375 308.916015625 150.2529296875ZM291.70703125 162.208984375Q291.70703125 166.720703125 294.1240234375 169.556640625Q296.60546875 172.4248046875 300.3759765625 172.4248046875Q304.404296875 172.4248046875 306.8857421875 169.6533203125Q309.3671875 166.78515625 309.3671875 162.3701171875Q309.3671875 157.955078125 306.8857421875 155.0869140625Q304.404296875 152.283203125 300.4404296875 152.283203125Q296.7021484375 152.283203125 294.1884765625 155.119140625Q291.70703125 157.9873046875 291.70703125 162.208984375ZM326.8515625 146.611328125H334.1025390625V149.4150390625Q336.1005859375 147.3203125 337.6474609375 146.546875Q339.2265625 145.7412109375 341.3857421875 145.7412109375Q344.25390625 145.7412109375 347.3798828125 147.6103515625L344.060546875 154.2490234375Q341.998046875 152.7666015625 340.0322265625 152.7666015625Q334.1025390625 152.7666015625 334.1025390625 161.7255859375V178.0H326.8515625ZM362.8984375 153.37890625V178.0H355.6474609375V153.37890625H352.5537109375V146.611328125H355.6474609375V135.1064453125H362.8984375V146.611328125H368.5380859375V153.37890625ZM374.96875 146.611328125H382.2197265625V149.51171875Q384.314453125 147.3203125 385.796875 146.546875Q387.3759765625 145.7412109375 389.7607421875 145.7412109375Q395.078125 145.7412109375 398.171875 150.3818359375Q401.587890625 145.7412109375 407.4208984375 145.7412109375Q418.0234375 145.7412109375 418.0234375 158.599609375V178.0H410.740234375V160.5654296875Q410.740234375 156.0537109375 409.64453125 154.1845703125Q408.5166015625 152.283203125 405.9384765625 152.283203125Q402.94140625 152.283203125 401.57177734375 154.5390625Q400.2021484375 156.794921875 400.2021484375 161.7900390625V178.0H392.9189453125V160.662109375Q392.9189453125 152.283203125 388.0849609375 152.283203125Q385.0234375 152.283203125 383.62158203125 154.5712890625Q382.2197265625 156.859375 382.2197265625 161.7900390625V178.0H374.96875ZM457.2607421875 164.013671875H434.7666015625Q435.056640625 167.880859375 437.2802734375 170.1689453125Q439.50390625 172.4248046875 442.984375 172.4248046875Q445.69140625 172.4248046875 447.4638671875 171.1357421875Q449.2041015625 169.8466796875 451.427734375 166.3662109375L457.55078125 169.7822265625Q456.1328125 172.19921875 454.5537109375 173.92333984375Q452.974609375 175.6474609375 451.169921875 176.75927734375Q449.365234375 177.87109375 447.2705078125 178.38671875Q445.17578125 178.90234375 442.7265625 178.90234375Q435.701171875 178.90234375 431.447265625 174.390625Q427.193359375 169.8466796875 427.193359375 162.337890625Q427.193359375 154.8935546875 431.318359375 150.28515625Q435.4755859375 145.7412109375 442.33984375 145.7412109375Q449.2685546875 145.7412109375 453.296875 150.15625Q457.29296875 154.5390625 457.29296875 162.3056640625ZM449.81640625 158.083984375Q448.3017578125 152.283203125 442.5009765625 152.283203125Q441.1796875 152.283203125 440.01953125 152.68603515625Q438.859375 153.0888671875 437.90869140625 153.84619140625Q436.9580078125 154.603515625 436.28125 155.6669921875Q435.6044921875 156.73046875 435.25 158.083984375ZM466.6884765625 146.611328125H473.9716796875V149.51171875Q477.7744140625 145.7412109375 482.5439453125 145.7412109375Q488.0224609375 145.7412109375 491.083984375 149.189453125Q493.7265625 152.1220703125 493.7265625 158.7607421875V178.0H486.443359375V160.46875Q486.443359375 155.828125 485.154296875 154.0556640625Q483.8974609375 152.2509765625 480.578125 152.2509765625Q476.96875 152.2509765625 475.4541015625 154.6357421875Q473.9716796875 156.98828125 473.9716796875 162.853515625V178.0H466.6884765625ZM511.85546875 153.37890625V178.0H504.6044921875V153.37890625H501.5107421875V146.611328125H504.6044921875V135.1064453125H511.85546875V146.611328125H517.4951171875V153.37890625Z" fill="#ffffff"/>
</g>
</svg>
